Coordinates
version=1
nRows=11
nColumns=63
inDegrees=yes

Units are S.I. units (second, meters, Newtons, ...)
If the header above contains a line with 'inDegrees', this indicates whether rotational values are in degrees (yes) or radians (no).

endheader
time	pelvis_tilt	pelvis_list	pelvis_rotation	pelvis_tx	pelvis_ty	pelvis_tz	hip_flexion_r	hip_adduction_r	hip_rotation_r	knee_angle_r	knee_angle_r_beta	ankle_angle_r	subtalar_angle_r	mtp_angle_r	hip_flexion_l	hip_adduction_l	hip_rotation_l	knee_angle_l	knee_angle_l_beta	ankle_angle_l	subtalar_angle_l	mtp_angle_l	L5_S1_Flex_Ext	L5_S1_Lat_Bending	L5_S1_axial_rotation	L4_L5_Flex_Ext	L4_L5_Lat_Bending	L4_L5_axial_rotation	L3_L4_Flex_Ext	L3_L4_Lat_Bending	L3_L4_axial_rotation	L2_L3_Flex_Ext	L2_L3_Lat_Bending	L2_L3_axial_rotation	L1_L2_Flex_Ext	L1_L2_Lat_Bending	L1_L2_axial_rotation	L1_T12_Flex_Ext	L1_T12_Lat_Bending	L1_T12_axial_rotation	Abs_r3	Abs_r2	Abs_r1	Abs_t1	Abs_t2	neck_flexion	neck_bending	neck_rotation	arm_flex_r	arm_add_r	arm_rot_r	elbow_flex_r	pro_sup_r	wrist_flex_r	wrist_dev_r	arm_flex_l	arm_add_l	arm_rot_l	elbow_flex_l	pro_sup_l	wrist_flex_l	wrist_dev_l
0.000000	0.412819	-4.450417	95.948432	0.152779	0.988467	0.497372	-3.503628	1.365246	-22.908695	9.034268	0.157678	24.521012	15.732033	0.000000	-1.550125	-2.337035	7.485698	6.146301	0.107273	24.141915	10.022880	0.000000	0.045434	-0.063718	-1.163263	0.084375	-0.084744	-1.235967	0.074643	-0.154923	-1.235967	0.051926	-0.154923	-1.017855	0.042190	-0.129933	-0.945151	0.025961	-0.098698	-0.872447	0.324529	-0.720785	-6.469720	0.000000	0.000000	19.100984	-0.180125	-11.713339	24.915911	-11.969717	63.967592	44.704574	25.989139	1.910454	17.860196	24.817728	-2.900888	62.562194	42.482563	89.285586	-7.289600	-5.384468
0.016667	0.290662	-4.746699	95.145900	0.154199	0.988074	0.499613	-2.783315	1.175751	-21.579095	9.278926	0.161948	25.111311	15.103453	0.000000	-1.078848	-2.155332	6.116718	6.303552	0.110018	24.148263	10.454826	0.000000	0.035911	-0.076000	-1.107432	0.066690	-0.101080	-1.176646	0.058998	-0.184786	-1.176646	0.041043	-0.184786	-0.969003	0.033347	-0.154979	-0.899788	0.020520	-0.117724	-0.830574	0.256509	-0.859726	-6.159204	0.000000	0.000000	19.751468	1.187240	-9.335772	25.112547	-12.014544	64.646994	45.394627	26.601715	1.351190	16.854798	24.504013	-3.545005	61.183028	43.781449	89.257995	-6.411818	-5.146990
0.033333	0.189671	-4.995337	94.436009	0.155415	0.987702	0.501504	-2.170083	1.018407	-20.389060	9.492770	0.165680	25.617838	14.521760	0.000000	-0.691144	-2.005547	4.917103	6.433468	0.112285	24.168357	10.826958	0.000000	0.028986	-0.085468	-1.062596	0.053829	-0.113672	-1.129009	0.047620	-0.207806	-1.129009	0.033128	-0.207806	-0.929772	0.026916	-0.174286	-0.863360	0.016562	-0.132390	-0.796947	0.207041	-0.966829	-5.909843	0.000000	0.000000	20.283032	2.264409	-7.399613	25.410868	-12.071563	65.495250	45.976990	26.596638	0.768240	16.080090	24.163182	-4.032785	59.821824	44.873840	89.219768	-5.811617	-4.857074
0.050000	0.108257	-5.199105	93.811649	0.156447	0.987354	0.503068	-1.657003	0.890654	-19.330445	9.677803	0.168910	26.046942	13.987155	0.000000	-0.381908	-1.884938	3.878023	6.537396	0.114099	24.200284	11.138450	0.000000	0.024359	-0.092334	-1.027781	0.045236	-0.122804	-1.092017	0.040019	-0.224500	-1.092017	0.027839	-0.224500	-0.899308	0.022619	-0.188287	-0.835072	0.013918	-0.143025	-0.770836	0.173991	-1.044497	-5.716209	0.000000	0.000000	20.704070	3.077357	-5.864662	25.789085	-12.140187	66.466619	46.465902	26.080066	0.185616	15.522194	23.799771	-4.383936	58.487519	45.784106	89.173221	-5.457704	-4.528683
0.066667	0.044829	-5.360779	93.265706	0.157309	0.987031	0.504332	-1.237147	0.789927	-18.395103	9.836029	0.171671	26.404971	13.499834	0.000000	-0.146034	-1.790763	2.990649	6.616681	0.115483	24.242130	11.388478	0.000000	0.021731	-0.096810	-1.002009	0.040356	-0.128758	-1.064635	0.035701	-0.235385	-1.064635	0.024836	-0.235385	-0.876758	0.020179	-0.197416	-0.814133	0.012417	-0.149959	-0.751507	0.155220	-1.095138	-5.572875	0.000000	0.000000	21.022973	3.652055	-4.690719	26.225410	-12.219830	67.515360	46.875604	25.158159	-0.372670	15.167233	23.418316	-4.618164	57.189047	46.536616	89.120674	-5.318785	-4.175779
0.083333	-0.002202	-5.483133	92.791069	0.158021	0.986733	0.505318	-0.903587	0.713666	-17.574888	9.969450	0.174000	26.698276	13.059998	0.000000	0.021583	-1.720280	2.246152	6.672672	0.116460	24.291983	11.576219	0.000000	0.020803	-0.099110	-0.984306	0.038633	-0.131817	-1.045825	0.034177	-0.240977	-1.045825	0.023776	-0.240977	-0.861267	0.019318	-0.202106	-0.799748	0.011887	-0.153522	-0.738229	0.148593	-1.121155	-5.474413	0.000000	0.000000	21.248133	4.014477	-3.837585	26.698056	-12.309906	68.595733	47.220333	23.937078	-0.882605	15.001331	23.023355	-4.755176	55.935343	47.155739	89.064444	-5.363568	-3.812326
0.100000	-0.034427	-5.568942	92.380625	0.158597	0.986464	0.506053	-0.649396	0.659308	-16.861652	10.080068	0.175930	26.933203	12.667845	0.000000	0.126047	-1.670748	1.635703	6.706714	0.117054	24.347930	11.700847	0.000000	0.021276	-0.099446	-0.973694	0.039512	-0.132264	-1.034550	0.034955	-0.241794	-1.034550	0.024317	-0.241794	-0.851982	0.019757	-0.202791	-0.791126	0.012157	-0.154042	-0.730270	0.151973	-1.124956	-5.415394	0.000000	0.000000	21.387944	4.190596	-3.265061	27.185235	-12.409830	69.661997	47.514329	22.522981	-1.320178	15.010610	22.619422	-4.814678	54.735342	47.665845	89.006850	-5.560761	-3.452285
0.116667	-0.053436	-5.620981	92.027262	0.159056	0.986223	0.506559	-0.467646	0.624290	-16.247249	10.169886	0.177498	27.116104	12.323574	0.000000	0.172463	-1.639425	1.150471	6.720154	0.117289	24.408057	11.761538	0.000000	0.022851	-0.098031	-0.969198	0.042437	-0.130381	-1.029773	0.037542	-0.238352	-1.029773	0.026117	-0.238352	-0.848049	0.021220	-0.199905	-0.787474	0.013057	-0.151850	-0.726899	0.163225	-1.108945	-5.390390	0.000000	0.000000	21.450796	4.206384	-2.932947	27.665160	-12.519014	70.668409	47.771832	21.022029	-1.661376	15.181192	22.211054	-4.816378	53.597978	48.091303	88.950210	-5.879069	-3.109620
0.133333	-0.060819	-5.642025	91.723869	0.159415	0.986014	0.506862	-0.351407	0.606051	-15.723532	10.240906	0.178738	27.253325	12.027383	0.000000	0.165936	-1.623569	0.781629	6.714340	0.117187	24.470452	11.757468	0.000000	0.025229	-0.095077	-0.969843	0.046853	-0.126452	-1.030458	0.041449	-0.231170	-1.030458	0.028835	-0.231170	-0.848612	0.023428	-0.193880	-0.787997	0.014416	-0.147274	-0.727382	0.180210	-1.075527	-5.393974	0.000000	0.000000	21.445083	4.087815	-2.801045	28.116041	-12.636874	71.569231	48.007080	19.540381	-1.882188	15.499202	21.802787	-4.779982	52.532187	48.456482	88.896843	-6.287201	-2.798293
0.150000	-0.058166	-5.634850	91.463332	0.159690	0.985836	0.506986	-0.293754	0.602027	-15.282356	10.295132	0.179684	27.351217	11.779471	0.000000	0.111571	-1.620439	0.520347	6.690618	0.116773	24.533202	11.687812	0.000000	0.028111	-0.090797	-0.974651	0.052205	-0.120759	-1.035567	0.046183	-0.220763	-1.035567	0.032128	-0.220763	-0.852820	0.026104	-0.185152	-0.791904	0.016063	-0.140644	-0.730988	0.200793	-1.027108	-5.420717	0.000000	0.000000	21.379198	3.860861	-2.829155	28.516092	-12.762824	72.318720	48.234313	18.184197	-1.958600	15.950761	21.399158	-4.725197	51.546903	48.785752	88.849067	-6.753862	-2.532266
0.166667	-0.047069	-5.602229	91.238541	0.159898	0.985691	0.506956	-0.287756	0.609656	-14.915572	10.334565	0.180372	27.416128	11.580037	0.000000	0.014473	-1.627292	0.357796	6.650335	0.116070	24.594392	11.551745	0.000000	0.031197	-0.085403	-0.982648	0.057936	-0.113586	-1.044063	0.051254	-0.207649	-1.044063	0.035655	-0.207649	-0.859817	0.028970	-0.174154	-0.798401	0.017826	-0.132289	-0.736986	0.222838	-0.966094	-5.465191	0.000000	0.000000	21.261531	3.551495	-2.977078	28.843524	-12.896276	72.871136	48.467770	17.059636	-1.866602	16.521993	21.004703	-4.671730	50.651061	49.103482	88.809200	-7.247761	-2.325502
